<svg width="140" height="59" viewBox="0 0 140 59" fill="none" xmlns="http://www.w3.org/2000/svg">
<path fill-rule="evenodd" clip-rule="evenodd" d="M20.6851 21.2366C21.2674 21.2295 21.8281 21.2228 22.3347 21.2228C23.9153 21.2228 26.6922 19.0099 27.4718 15.8965C28.6573 11.1621 35.375 5.63848 45.4516 8.20299C53.4536 10.373 59.4798 18.4611 56.2198 32.0727C54.7379 37.5962 49.6579 41.0352 46.7359 41.8375C42.7843 42.9226 42.7843 47.1638 42.7843 49.9256L48.5141 49.5311L56.2198 59H66L54.8367 46.7693C60.2043 43.317 69.6552 32.3093 64.5181 15.8965C61.0605 5.5399 49.3044 -1.85772 36.9556 0.41088C26.1875 2.48221 18.9758 10.3729 17 21.2228C18.1188 21.2675 19.4505 21.2514 20.6851 21.2366ZM36.9208 19.0831C36.2392 18.361 35.425 18 34.4783 18C33.9482 18 33.418 18.1605 32.8879 18.4814C32.3956 18.7622 31.998 19.1432 31.6951 19.6246L18.9716 39.7819L6.58894 19.6246C6.286 19.1432 5.85052 18.7622 5.28251 18.4814C4.7145 18.1605 4.14649 18 3.57848 18C2.59392 18 1.7419 18.361 1.02242 19.0831C0.340807 19.8051 0 20.6676 0 21.6704V56.5094V59H3.20203H6.54328C6.54328 59 6.53214 57.5925 6.53214 56.5094V31.719L15.9043 47.4236C16.283 47.905 16.7185 48.3061 17.2108 48.627C17.703 48.9078 18.1953 49.0282 18.6876 48.9881C19.2177 49.0282 19.7289 48.9078 20.2212 48.627C20.7135 48.3061 21.149 47.905 21.5277 47.4236L30.8998 32.2605V56.5094V59H34.6654H38V56.5094V21.6704C38 20.6275 37.6403 19.765 36.9208 19.0831Z" fill="white"/>
<path d="M75.0277 22.0756V12H76.5636L80.7007 16.9818L84.8379 12H86.3738V22.0756H85.253V13.2874L80.7007 18.759L76.1485 13.2874V22.0756H75.0277Z" fill="white"/>
<path d="M91.9048 22.0756V18.2832L87.3249 12H88.6117L92.4721 16.9258L96.2911 12H97.6056L93.0256 18.2832V22.0756H91.9048Z" fill="white"/>
<path d="M76.6604 39.0378C76.1992 39.0378 75.8071 38.8745 75.4843 38.548C75.1614 38.2215 75 37.825 75 37.3585V30.6415C75 30.175 75.1614 29.7785 75.4843 29.452C75.8071 29.1255 76.1992 28.9622 76.6604 28.9622H83.3021C83.7633 28.9622 84.1553 29.1255 84.4782 29.452C84.801 29.7785 84.9625 30.175 84.9625 30.6415V37.9043H86.2631V39.0378H76.6604ZM76.6604 37.9043H83.3021C83.4496 37.9043 83.5742 37.853 83.6756 37.7503C83.7863 37.6384 83.8417 37.5078 83.8417 37.3585V30.6415C83.8417 30.4922 83.7863 30.3663 83.6756 30.2636C83.5742 30.1517 83.4496 30.0957 83.3021 30.0957H76.6604C76.5128 30.0957 76.3837 30.1517 76.273 30.2636C76.1715 30.3663 76.1208 30.4922 76.1208 30.6415V37.3585C76.1208 37.5078 76.1715 37.6384 76.273 37.7503C76.3837 37.853 76.5128 37.9043 76.6604 37.9043Z" fill="white"/>
<path d="M88.8892 39.0378C88.428 39.0378 88.0359 38.8745 87.7131 38.548C87.3902 38.2215 87.2288 37.825 87.2288 37.3585V28.9622H88.3496V37.3585C88.3496 37.5078 88.4003 37.6384 88.5018 37.7503C88.6124 37.853 88.7416 37.9043 88.8892 37.9043H95.5308C95.6784 37.9043 95.8029 37.853 95.9044 37.7503C96.0151 37.6384 96.0705 37.5078 96.0705 37.3585V28.9622H97.1912V37.3585C97.1912 37.825 97.0298 38.2215 96.707 38.548C96.3841 38.8745 95.9921 39.0378 95.5308 39.0378H88.8892Z" fill="white"/>
<path d="M98.6597 39.0378V28.9622H99.7943V39.0378H98.6597Z" fill="white"/>
<path d="M103.335 39.0378C102.873 39.0378 102.481 38.8745 102.159 38.548C101.836 38.2215 101.674 37.825 101.674 37.3585V30.6415C101.674 30.175 101.836 29.7785 102.159 29.452C102.481 29.1255 102.873 28.9622 103.335 28.9622H111.609V30.0957H103.335C103.187 30.0957 103.058 30.1517 102.947 30.2636C102.846 30.3663 102.795 30.4922 102.795 30.6415V37.3585C102.795 37.5078 102.846 37.6384 102.947 37.7503C103.058 37.853 103.187 37.9043 103.335 37.9043H111.609V39.0378H103.335Z" fill="white"/>
<path d="M113.066 39.0378V28.9622H114.2V33.4263H117.41L121.119 28.9622H122.558V28.9762L118.393 34L122.571 39.0238V39.0378H121.119L117.41 34.5737H114.2V39.0378H113.066Z" fill="white"/>
<path d="M75.0138 56V45.9384H83.3159C83.7771 45.9384 84.1692 46.1064 84.492 46.4422C84.8149 46.7687 84.9763 47.1606 84.9763 47.6177V50.5704C84.9763 51.0275 84.8149 51.424 84.492 51.7599C84.1692 52.0864 83.7771 52.2497 83.3159 52.2497H81.7938L84.921 55.986V56H83.4404L80.3272 52.2497L76.1346 52.2357V56H75.0138ZM76.6742 51.1022H83.3159C83.4635 51.1022 83.588 51.0508 83.6895 50.9482C83.791 50.8456 83.8417 50.7197 83.8417 50.5704V47.6177C83.8417 47.4684 83.791 47.3425 83.6895 47.2399C83.588 47.1279 83.4635 47.0719 83.3159 47.0719H76.6742C76.5267 47.0719 76.3975 47.1279 76.2868 47.2399C76.1853 47.3425 76.1346 47.4684 76.1346 47.6177V50.5704C76.1346 50.7197 76.1853 50.8456 76.2868 50.9482C76.3975 51.0508 76.5267 51.1022 76.6742 51.1022Z" fill="white"/>
<path d="M86.4734 56V45.9244H95.5641V47.0579H87.5942V50.3885H94.0006V51.536H87.5942V54.8665H95.5641V56H86.4734Z" fill="white"/>
<path d="M97.0671 56V45.9244H106.158V47.0579H98.1879V50.3885H104.594V51.536H98.1879V56H97.0671Z" fill="white"/>
<path d="M108.671 56C108.21 56 107.818 55.8367 107.495 55.5102C107.172 55.1837 107.011 54.7872 107.011 54.3207V45.9244H108.132V54.3207C108.132 54.47 108.183 54.6006 108.284 54.7126C108.395 54.8152 108.524 54.8665 108.671 54.8665H115.313C115.461 54.8665 115.585 54.8152 115.687 54.7126C115.797 54.6006 115.853 54.47 115.853 54.3207V45.9244H116.973V54.3207C116.973 54.7872 116.812 55.1837 116.489 55.5102C116.166 55.8367 115.774 56 115.313 56H108.671Z" fill="white"/>
<path d="M118.497 56V45.9244H120.033L127.339 54.7126V45.9244H128.46V56H126.924L119.618 47.2119V56H118.497Z" fill="white"/>
<path d="M130.038 56V45.9244H138.34C138.801 45.9244 139.193 46.0877 139.516 46.4142C139.839 46.7407 140 47.1372 140 47.6037V54.3207C140 54.7872 139.839 55.1837 139.516 55.5102C139.193 55.8367 138.801 56 138.34 56H130.038ZM131.698 54.8665H138.34C138.487 54.8665 138.612 54.8152 138.713 54.7126C138.824 54.6006 138.879 54.47 138.879 54.3207V47.6037C138.879 47.4544 138.824 47.3285 138.713 47.2259C138.612 47.1139 138.487 47.0579 138.34 47.0579H131.698C131.55 47.0579 131.421 47.1139 131.311 47.2259C131.209 47.3285 131.158 47.4544 131.158 47.6037V54.3207C131.158 54.47 131.209 54.6006 131.311 54.7126C131.421 54.8152 131.55 54.8665 131.698 54.8665Z" fill="white"/>
</svg>
