<svg width="705" height="180" viewBox="0 0 705 180" fill="none" xmlns="http://www.w3.org/2000/svg">
<path d="M700.525 89.6696C700.525 94.8924 698.16 100.035 693.566 105.052C688.97 110.071 682.168 114.938 673.366 119.589C655.762 128.891 630.256 137.283 598.697 144.336C535.585 158.441 448.374 167.17 352.025 167.17C255.677 167.17 168.465 158.441 105.354 144.336C73.7945 137.283 48.2888 128.891 30.6851 119.589C21.8828 114.938 15.0806 110.071 10.4846 105.052C5.89114 100.035 3.52539 94.8924 3.52539 89.6696C3.52539 84.4469 5.89114 79.3045 10.4846 74.2876C15.0806 69.2678 21.8828 64.4018 30.6851 59.7506C48.2888 50.4488 73.7945 42.0567 105.354 35.0033C168.465 20.8982 255.677 12.1696 352.025 12.1696C448.374 12.1696 535.585 20.8982 598.697 35.0033C630.256 42.0567 655.762 50.4488 673.366 59.7506C682.168 64.4018 688.97 69.2678 693.566 74.2876C698.16 79.3045 700.525 84.4469 700.525 89.6696Z" stroke="#FCFF66"/>
<path d="M699.24 77.5444C699.529 82.7345 697.456 87.9273 693.157 93.0735C688.856 98.2224 682.348 103.296 673.835 108.225C656.811 118.083 631.863 127.311 600.809 135.42C538.71 151.635 452.303 163.345 356.309 166.697C260.316 170.049 172.943 164.408 109.285 152.584C77.4519 146.672 51.5764 139.218 33.5236 130.585C24.4967 126.268 17.4507 121.668 12.5944 116.839C7.74072 112.013 5.09993 106.984 4.81129 101.794C4.52265 96.6043 6.595 91.4114 10.894 86.2653C15.1954 81.1163 21.7035 76.0432 30.2162 71.114C47.2406 61.2562 72.1884 52.0277 103.242 43.919C165.341 27.7037 251.749 15.9938 347.742 12.6417C443.735 9.28951 531.108 14.9308 594.766 26.7546C626.599 32.6672 652.475 40.121 670.528 48.7538C679.554 53.0705 686.6 57.6703 691.457 62.4995C696.31 67.326 698.951 72.3543 699.24 77.5444Z" stroke="#FCFF66"/>
</svg>
