<svg width="343" height="175" viewBox="0 0 343 175" fill="none" xmlns="http://www.w3.org/2000/svg">
<path d="M341.501 90.0024C341.501 112.973 322.855 133.904 292.4 149.122C261.975 164.325 219.909 173.742 173.417 173.742C126.924 173.742 84.8579 164.325 54.4332 149.122C23.9785 133.904 5.33258 112.973 5.33258 90.0024C5.33258 67.0318 23.9785 46.1011 54.4332 30.8832C84.8579 15.6803 126.924 6.2627 173.417 6.2627C219.909 6.2627 261.975 15.6803 292.4 30.8832C322.855 46.1011 341.501 67.0318 341.501 90.0024Z" stroke="#FCFF66"/>
<path d="M338.532 84.117C337.696 106.984 318.356 128.117 287.456 143.751C256.587 159.368 214.328 169.412 168.002 170.149C121.675 170.887 80.1016 162.179 50.3388 147.526C20.5466 132.859 2.72967 112.318 3.56557 89.4508C4.40146 66.5836 23.7418 45.4506 54.6416 29.8173C85.5108 14.1994 127.77 4.15631 174.096 3.41864C220.423 2.68098 261.996 11.3892 291.759 26.0416C321.551 40.7085 339.368 61.2499 338.532 84.117Z" stroke="#FCFF66"/>
</svg>
