<svg width="112" height="47" viewBox="0 0 112 47" fill="none" xmlns="http://www.w3.org/2000/svg">
<path fill-rule="evenodd" clip-rule="evenodd" d="M16.3574 16.9173C16.8202 16.9117 17.2658 16.9063 17.6685 16.9063C18.9247 16.9063 21.1316 15.1435 21.7512 12.6633C22.6933 8.89186 28.0323 4.49167 36.0407 6.53458C42.4003 8.2632 47.1897 14.7063 44.5987 25.5494C43.421 29.9495 39.3836 32.6891 37.0614 33.3282C33.9208 34.1925 33.9208 37.5712 33.9208 39.7713L38.4746 39.4569L44.5987 47H52.3716L43.4995 37.2569C47.7654 34.5068 55.2766 25.7379 51.1939 12.6633C48.4459 4.41314 39.1027 -1.47988 29.2885 0.327311C20.7305 1.97736 14.999 8.26316 13.4287 16.9063C14.3179 16.9419 15.3762 16.9291 16.3574 16.9173ZM29.3562 15.2958C28.8142 14.7223 28.1669 14.4355 27.4142 14.4355C26.9926 14.4355 26.5711 14.563 26.1496 14.8179C25.7582 15.0409 25.442 15.3436 25.2012 15.7259L15.0846 31.7358L5.23895 15.7259C4.99808 15.3436 4.65183 15.0409 4.20019 14.8179C3.74856 14.563 3.29693 14.4355 2.84529 14.4355C2.06246 14.4355 1.38501 14.7223 0.81294 15.2958C0.27098 15.8693 0 16.5543 0 17.3508V45.0217V46.9998H2.54597H5.20264C5.20264 46.9998 5.19379 45.8819 5.19379 45.0217V25.3319L12.6457 37.8053C12.9468 38.1876 13.2931 38.5062 13.6845 38.7611C14.0759 38.9841 14.4673 39.0797 14.8587 39.0478C15.2803 39.0797 15.6867 38.9841 16.0782 38.7611C16.4696 38.5062 16.8158 38.1876 17.1169 37.8053L24.5689 25.762V45.0217V46.9998H27.5629H30.2143V45.0217V17.3508C30.2143 16.5224 29.9283 15.8374 29.3562 15.2958Z" fill="#242424"/>
<path d="M59.3698 17.457V9.48047H60.5995L63.912 13.4244L67.2245 9.48047H68.4542V17.457H67.5569V10.4997L63.912 14.8314L60.2672 10.4997V17.457H59.3698Z" fill="#242424"/>
<path d="M72.8827 17.457V14.4547L69.2157 9.48047H70.246L73.3369 13.3801L76.3946 9.48047H77.4471L73.7801 14.4547V17.457H72.8827Z" fill="#242424"/>
<path d="M60.6771 30.8856C60.3078 30.8856 59.9939 30.7564 59.7354 30.4979C59.4769 30.2394 59.3477 29.9255 59.3477 29.5562V24.2385C59.3477 23.8692 59.4769 23.5553 59.7354 23.2968C59.9939 23.0383 60.3078 22.909 60.6771 22.909H65.9948C66.3641 22.909 66.678 23.0383 66.9365 23.2968C67.195 23.5553 67.3242 23.8692 67.3242 24.2385V29.9882H68.3656V30.8856H60.6771ZM60.6771 29.9882H65.9948C66.113 29.9882 66.2127 29.9476 66.2939 29.8664C66.3825 29.7778 66.4269 29.6744 66.4269 29.5562V24.2385C66.4269 24.1203 66.3825 24.0206 66.2939 23.9393C66.2127 23.8507 66.113 23.8064 65.9948 23.8064H60.6771C60.5589 23.8064 60.4555 23.8507 60.3669 23.9393C60.2856 24.0206 60.245 24.1203 60.245 24.2385V29.5562C60.245 29.6744 60.2856 29.7778 60.3669 29.8664C60.4555 29.9476 60.5589 29.9882 60.6771 29.9882Z" fill="#242424"/>
<path d="M70.4682 30.8856C70.0989 30.8856 69.785 30.7564 69.5265 30.4979C69.268 30.2394 69.1388 29.9255 69.1388 29.5562V22.909H70.0361V29.5562C70.0361 29.6744 70.0768 29.7778 70.158 29.8664C70.2466 29.9476 70.35 29.9882 70.4682 29.9882H75.7859C75.9041 29.9882 76.0038 29.9476 76.085 29.8664C76.1737 29.7778 76.218 29.6744 76.218 29.5562V22.909H77.1153V29.5562C77.1153 29.9255 76.9861 30.2394 76.7276 30.4979C76.4691 30.7564 76.1552 30.8856 75.7859 30.8856H70.4682Z" fill="#242424"/>
<path d="M78.2911 30.8856V22.909H79.1995V30.8856H78.2911Z" fill="#242424"/>
<path d="M82.0341 30.8856C81.6649 30.8856 81.351 30.7564 81.0925 30.4979C80.834 30.2394 80.7047 29.9255 80.7047 29.5562V24.2385C80.7047 23.8692 80.834 23.5553 81.0925 23.2968C81.351 23.0383 81.6649 22.909 82.0341 22.909H88.6591V23.8064H82.0341C81.916 23.8064 81.8126 23.8507 81.7239 23.9393C81.6427 24.0206 81.6021 24.1203 81.6021 24.2385V29.5562C81.6021 29.6744 81.6427 29.7778 81.7239 29.8664C81.8126 29.9476 81.916 29.9882 82.0341 29.9882H88.6591V30.8856H82.0341Z" fill="#242424"/>
<path d="M89.8253 30.8856V22.909H90.7338V26.4431H93.304L96.2731 22.909H97.4252V22.9201L94.0906 26.8973L97.4363 30.8745V30.8856H96.2731L93.304 27.3515H90.7338V30.8856H89.8253Z" fill="#242424"/>
<path d="M59.3587 44.3142V36.3487H66.0059C66.3752 36.3487 66.6891 36.4816 66.9476 36.7475C67.2061 37.006 67.3353 37.3162 67.3353 37.6781V40.0157C67.3353 40.3776 67.2061 40.6915 66.9476 40.9574C66.6891 41.2159 66.3752 41.3451 66.0059 41.3451H64.7872L67.291 44.3031V44.3142H66.1056L63.6129 41.3451L60.2561 41.334V44.3142H59.3587ZM60.6882 40.4367H66.0059C66.124 40.4367 66.2238 40.3961 66.305 40.3148C66.3862 40.2336 66.4269 40.1339 66.4269 40.0157V37.6781C66.4269 37.5599 66.3862 37.4602 66.305 37.379C66.2238 37.2904 66.124 37.2461 66.0059 37.2461H60.6882C60.57 37.2461 60.4666 37.2904 60.378 37.379C60.2967 37.4602 60.2561 37.5599 60.2561 37.6781V40.0157C60.2561 40.1339 60.2967 40.2336 60.378 40.3148C60.4666 40.3961 60.57 40.4367 60.6882 40.4367Z" fill="#242424"/>
<path d="M68.534 44.3142V36.3376H75.8126V37.235H69.4313V39.8717H74.5607V40.7801H69.4313V43.4168H75.8126V44.3142H68.534Z" fill="#242424"/>
<path d="M77.016 44.3142V36.3376H84.2946V37.235H77.9133V39.8717H83.0427V40.7801H77.9133V44.3142H77.016Z" fill="#242424"/>
<path d="M86.3071 44.3142C85.9378 44.3142 85.6239 44.1849 85.3654 43.9264C85.1069 43.6679 84.9777 43.354 84.9777 42.9848V36.3376H85.875V42.9848C85.875 43.1029 85.9157 43.2063 85.9969 43.295C86.0855 43.3762 86.1889 43.4168 86.3071 43.4168H91.6248C91.743 43.4168 91.8427 43.3762 91.9239 43.295C92.0126 43.2063 92.0569 43.1029 92.0569 42.9848V36.3376H92.9542V42.9848C92.9542 43.354 92.825 43.6679 92.5665 43.9264C92.308 44.1849 91.9941 44.3142 91.6248 44.3142H86.3071Z" fill="#242424"/>
<path d="M94.1743 44.3142V36.3376H95.404L101.253 43.295V36.3376H102.151V44.3142H100.921L95.0716 37.3568V44.3142H94.1743Z" fill="#242424"/>
<path d="M103.414 44.3142V36.3376H110.061C110.431 36.3376 110.744 36.4669 111.003 36.7254C111.261 36.9839 111.391 37.2978 111.391 37.667V42.9848C111.391 43.354 111.261 43.6679 111.003 43.9264C110.744 44.1849 110.431 44.3142 110.061 44.3142H103.414ZM104.744 43.4168H110.061C110.179 43.4168 110.279 43.3762 110.36 43.295C110.449 43.2063 110.493 43.1029 110.493 42.9848V37.667C110.493 37.5489 110.449 37.4492 110.36 37.3679C110.279 37.2793 110.179 37.235 110.061 37.235H104.744C104.625 37.235 104.522 37.2793 104.433 37.3679C104.352 37.4492 104.312 37.5489 104.312 37.667V42.9848C104.312 43.1029 104.352 43.2063 104.433 43.295C104.522 43.3762 104.625 43.4168 104.744 43.4168Z" fill="#242424"/>
</svg>
