<svg width="526" height="170" viewBox="0 0 526 170" fill="none" xmlns="http://www.w3.org/2000/svg">
<path d="M523.046 80.356C523.256 91.0898 516.407 101.548 503.615 111.271C490.833 120.985 472.204 129.893 449.073 137.53C402.818 152.802 338.671 162.953 267.602 164.346C196.533 165.74 132.038 158.113 85.2186 144.666C61.806 137.942 42.8421 129.77 29.689 120.565C16.525 111.352 9.27094 101.17 9.06033 90.436C8.84971 79.7022 15.6987 69.2436 28.4912 59.5215C41.2731 49.8073 59.9019 40.8987 83.0327 33.2618C129.288 17.9899 193.435 7.83949 264.504 6.44572C335.573 5.05195 400.068 12.6795 446.887 26.126C470.3 32.8502 489.264 41.0216 502.417 50.2271C515.581 59.4402 522.835 69.6221 523.046 80.356Z" stroke="#FCFF66"/>
<path d="M519.137 81.7768C518.401 92.4173 510.656 102.649 497.051 112.037C483.457 121.417 464.108 129.884 440.385 137.004C392.944 151.242 328.126 160.056 257.181 160.056C186.236 160.056 122.637 151.242 77.1661 137.004C54.4275 129.884 36.2497 121.417 23.9537 112.037C11.6472 102.649 5.31725 92.4173 6.05321 81.7768C6.78917 71.1363 14.5346 60.9042 28.1397 51.5165C41.7331 42.1369 61.0823 33.6692 84.8058 26.5493C132.247 12.3116 197.065 3.49789 268.01 3.49789C338.954 3.49789 402.553 12.3116 448.025 26.5493C470.763 33.6692 488.941 42.1369 501.237 51.5165C513.543 60.9042 519.873 71.1363 519.137 81.7768Z" stroke="#FCFF66"/>
</svg>
