<svg width="58" height="59" viewBox="0 0 58 59" fill="none" xmlns="http://www.w3.org/2000/svg">
<path fill-rule="evenodd" clip-rule="evenodd" d="M29.9836 1.95031C29.9836 1.41643 29.5359 0.983643 28.9836 0.983643C28.4313 0.983643 27.9836 1.41643 27.9836 1.95031L27.9836 29.0328H0.95082C0.425696 29.0328 0 29.4805 0 30.0328C0 30.5851 0.425696 31.0328 0.95082 31.0328H27.9836L27.9836 58.017C27.9836 58.5508 28.4313 58.9836 28.9836 58.9836C29.5359 58.9836 29.9836 58.5508 29.9836 58.017L29.9836 31.0328H57.0492C57.5743 31.0328 58 30.5851 58 30.0328C58 29.4805 57.5743 29.0328 57.0492 29.0328H29.9836L29.9836 1.95031Z" fill="#313131"/>
</svg>
