<svg width="110" height="110" viewBox="0 0 110 110" fill="none" xmlns="http://www.w3.org/2000/svg">
<path fill-rule="evenodd" clip-rule="evenodd" d="M55 110.257C85.3757 110.257 110 85.6325 110 55.2568C110 24.8812 85.3757 0.256836 55 0.256836C24.6243 0.256836 0 24.8812 0 55.2568C0 85.6325 24.6243 110.257 55 110.257ZM88.0538 42.3553C89.4259 40.9154 89.3709 38.6359 87.931 37.2639C86.4912 35.8919 84.2117 35.9469 82.8397 37.3867L51.1314 70.6627L30.4348 48.9428C29.0628 47.5029 26.7833 47.4479 25.3434 48.82C23.9036 50.192 23.8486 52.4715 25.2206 53.9113L48.5243 78.3672C49.204 79.0805 50.1462 79.4841 51.1314 79.4841C52.1166 79.4841 53.0589 79.0805 53.7385 78.3672L88.0538 42.3553Z" fill="#006F2F"/>
</svg>
